<svg width="266" height="66" viewBox="0 0 266 66" fill="none" xmlns="http://www.w3.org/2000/svg">
<path d="M0.32 14.92C0.32 23.32 6.16 29.2 14.44 29.2C21.12 29.2 26.16 25.48 27.76 19.4H20.24C19.08 21.8 16.96 23 14.36 23C10.16 23 7.28 19.88 7.28 14.92C7.28 9.96 10.16 6.84 14.36 6.84C16.96 6.84 19.08 8.03999 20.24 10.44H27.76C26.16 4.35999 21.12 0.599996 14.44 0.599996C6.16 0.599996 0.32 6.51999 0.32 14.92Z" fill="#FF7706"/>
<path d="M31.9487 0.919996V29H47.7487V23.72H38.7887V0.919996H31.9487Z" fill="#FF7706"/>
<path d="M78.6513 14.88C78.6513 6.44 72.2913 0.519997 64.2913 0.519997C56.3313 0.519997 49.8512 6.44 49.8512 14.88C49.8512 23.32 56.3313 29.28 64.2913 29.28C72.2513 29.28 78.6513 23.32 78.6513 14.88ZM56.8512 14.88C56.8512 9.88 59.7313 6.71999 64.2913 6.71999C68.7713 6.71999 71.6913 9.88 71.6913 14.88C71.6913 19.8 68.7713 23.04 64.2913 23.04C59.7313 23.04 56.8512 19.8 56.8512 14.88Z" fill="#FF7706"/>
<path d="M81.2966 14.92C81.2966 23.32 87.1366 29.2 95.4166 29.2C102.097 29.2 107.137 25.48 108.737 19.4H101.217C100.057 21.8 97.9366 23 95.3366 23C91.1366 23 88.2566 19.88 88.2566 14.92C88.2566 9.96 91.1366 6.84 95.3366 6.84C97.9366 6.84 100.057 8.03999 101.217 10.44H108.737C107.137 4.35999 102.097 0.599996 95.4166 0.599996C87.1366 0.599996 81.2966 6.51999 81.2966 14.92Z" fill="#FF7706"/>
<path d="M129.205 29H137.565L126.285 14.68L137.165 0.919996H129.125L119.765 13.24V0.919996H112.925V29H119.765V16.6L129.205 29Z" fill="#FF7706"/>
<path d="M147.12 29H155.4L160.04 10.52L164.52 29H172.8L180.12 0.919996H172.76L168.68 21.36L163.88 0.919996H156.36L151.36 21.36L147.32 0.919996H140L147.12 29Z" fill="white"/>
<path d="M211.19 14.88C211.19 6.44 204.83 0.519997 196.83 0.519997C188.87 0.519997 182.39 6.44 182.39 14.88C182.39 23.32 188.87 29.28 196.83 29.28C204.79 29.28 211.19 23.32 211.19 14.88ZM189.39 14.88C189.39 9.88 192.27 6.71999 196.83 6.71999C201.31 6.71999 204.23 9.88 204.23 14.88C204.23 19.8 201.31 23.04 196.83 23.04C192.27 23.04 189.39 19.8 189.39 14.88Z" fill="white"/>
<path d="M229.836 10.04C229.836 12.24 228.636 13.56 226.076 13.56H221.836V6.6H226.076C228.636 6.6 229.836 7.96 229.836 10.04ZM214.996 0.919996V29H221.836V18.4H223.476L229.316 29H237.036L230.556 17.88C234.876 16.6 236.796 13.28 236.796 9.76C236.796 4.88 233.356 0.919996 226.476 0.919996H214.996Z" fill="white"/>
<path d="M257.369 29H265.729L254.449 14.68L265.329 0.919996H257.289L247.929 13.24V0.919996H241.089V29H247.929V16.6L257.369 29Z" fill="white"/>
<path d="M37.2559 56.2959C35.8086 55.8799 34.7539 55.3701 34.0918 54.7666C33.4355 54.1572 33.1074 53.4072 33.1074 52.5166C33.1074 51.5088 33.5088 50.6768 34.3115 50.0205C35.1201 49.3584 36.1689 49.0273 37.458 49.0273C38.3369 49.0273 39.1191 49.1973 39.8047 49.5371C40.4961 49.877 41.0293 50.3457 41.4043 50.9434C41.7852 51.541 41.9756 52.1943 41.9756 52.9033H40.2793C40.2793 52.1299 40.0332 51.5234 39.541 51.084C39.0488 50.6387 38.3545 50.416 37.458 50.416C36.626 50.416 35.9756 50.6006 35.5068 50.9697C35.0439 51.333 34.8125 51.8398 34.8125 52.4902C34.8125 53.0117 35.0322 53.4541 35.4717 53.8174C35.917 54.1748 36.6699 54.5029 37.7305 54.8018C38.7969 55.1006 39.6289 55.4316 40.2266 55.7949C40.8301 56.1523 41.2754 56.5713 41.5625 57.0518C41.8555 57.5322 42.002 58.0977 42.002 58.748C42.002 59.7852 41.5977 60.6172 40.7891 61.2441C39.9805 61.8652 38.8994 62.1758 37.5459 62.1758C36.667 62.1758 35.8467 62.0088 35.085 61.6748C34.3232 61.335 33.7344 60.8721 33.3184 60.2861C32.9082 59.7002 32.7031 59.0352 32.7031 58.291H34.3994C34.3994 59.0645 34.6836 59.6768 35.252 60.1279C35.8262 60.5732 36.5908 60.7959 37.5459 60.7959C38.4365 60.7959 39.1191 60.6143 39.5938 60.251C40.0684 59.8877 40.3057 59.3926 40.3057 58.7656C40.3057 58.1387 40.0859 57.6553 39.6465 57.3154C39.207 56.9697 38.4102 56.6299 37.2559 56.2959Z" fill="white"/>
<path d="M43.4873 57.1572C43.4873 56.2256 43.6689 55.3877 44.0322 54.6436C44.4014 53.8994 44.9111 53.3252 45.5615 52.9209C46.2178 52.5166 46.9648 52.3145 47.8027 52.3145C49.0977 52.3145 50.1436 52.7627 50.9404 53.6592C51.7432 54.5557 52.1445 55.748 52.1445 57.2363V57.3506C52.1445 58.2764 51.9658 59.1084 51.6084 59.8467C51.2568 60.5791 50.75 61.1504 50.0879 61.5605C49.4316 61.9707 48.6758 62.1758 47.8203 62.1758C46.5312 62.1758 45.4854 61.7275 44.6826 60.8311C43.8857 59.9346 43.4873 58.748 43.4873 57.2715V57.1572ZM45.1221 57.3506C45.1221 58.4053 45.3652 59.252 45.8516 59.8906C46.3438 60.5293 47 60.8486 47.8203 60.8486C48.6465 60.8486 49.3027 60.5264 49.7891 59.8818C50.2754 59.2314 50.5186 58.3232 50.5186 57.1572C50.5186 56.1143 50.2695 55.2705 49.7715 54.626C49.2793 53.9756 48.623 53.6504 47.8027 53.6504C47 53.6504 46.3525 53.9697 45.8604 54.6084C45.3682 55.2471 45.1221 56.1611 45.1221 57.3506Z" fill="white"/>
<path d="M55.9502 62H54.3242V48.5H55.9502V62Z" fill="white"/>
<path d="M64.4316 61.0596C63.7988 61.8037 62.8701 62.1758 61.6455 62.1758C60.6318 62.1758 59.8584 61.8828 59.3252 61.2969C58.7979 60.7051 58.5312 59.832 58.5254 58.6777V52.4902H60.1514V58.6338C60.1514 60.0752 60.7373 60.7959 61.9092 60.7959C63.1514 60.7959 63.9775 60.333 64.3877 59.4072V52.4902H66.0137V62H64.4668L64.4316 61.0596Z" fill="white"/>
<path d="M72.3066 60.8486C72.8867 60.8486 73.3936 60.6729 73.8271 60.3213C74.2607 59.9697 74.501 59.5303 74.5479 59.0029H76.0859C76.0566 59.5479 75.8691 60.0664 75.5234 60.5586C75.1777 61.0508 74.7148 61.4434 74.1348 61.7363C73.5605 62.0293 72.9512 62.1758 72.3066 62.1758C71.0117 62.1758 69.9805 61.7451 69.2129 60.8838C68.4512 60.0166 68.0703 58.833 68.0703 57.333V57.0605C68.0703 56.1348 68.2402 55.3115 68.5801 54.5908C68.9199 53.8701 69.4062 53.3105 70.0391 52.9121C70.6777 52.5137 71.4307 52.3145 72.2979 52.3145C73.3643 52.3145 74.249 52.6338 74.9521 53.2725C75.6611 53.9111 76.0391 54.7402 76.0859 55.7598H74.5479C74.501 55.1445 74.2666 54.6406 73.8447 54.248C73.4287 53.8496 72.9131 53.6504 72.2979 53.6504C71.4717 53.6504 70.8301 53.9492 70.373 54.5469C69.9219 55.1387 69.6963 55.9971 69.6963 57.1221V57.4297C69.6963 58.5254 69.9219 59.3691 70.373 59.9609C70.8242 60.5527 71.4688 60.8486 72.3066 60.8486ZM72.5703 62.0791L72.4648 62.5361C73.3613 62.6943 73.8096 63.2012 73.8096 64.0566C73.8096 64.625 73.5752 65.0732 73.1064 65.4014C72.6377 65.7354 71.9844 65.9023 71.1465 65.9023L71.085 64.9619C71.5479 64.9619 71.9053 64.8857 72.1572 64.7334C72.415 64.5811 72.5439 64.3672 72.5439 64.0918C72.5439 63.834 72.4502 63.6436 72.2627 63.5205C72.0752 63.3975 71.6943 63.3096 71.1201 63.2568L71.4014 62.0791H72.5703Z" fill="white"/>
<path d="M77.4834 57.1572C77.4834 56.2256 77.665 55.3877 78.0283 54.6436C78.3975 53.8994 78.9072 53.3252 79.5576 52.9209C80.2139 52.5166 80.9609 52.3145 81.7988 52.3145C83.0938 52.3145 84.1396 52.7627 84.9365 53.6592C85.7393 54.5557 86.1406 55.748 86.1406 57.2363V57.3506C86.1406 58.2764 85.9619 59.1084 85.6045 59.8467C85.2529 60.5791 84.7461 61.1504 84.084 61.5605C83.4277 61.9707 82.6719 62.1758 81.8164 62.1758C80.5273 62.1758 79.4814 61.7275 78.6787 60.8311C77.8818 59.9346 77.4834 58.748 77.4834 57.2715V57.1572ZM79.1182 57.3506C79.1182 58.4053 79.3613 59.252 79.8477 59.8906C80.3398 60.5293 80.9961 60.8486 81.8164 60.8486C82.6426 60.8486 83.2988 60.5264 83.7852 59.8818C84.2715 59.2314 84.5146 58.3232 84.5146 57.1572C84.5146 56.1143 84.2656 55.2705 83.7676 54.626C83.2754 53.9756 82.6191 53.6504 81.7988 53.6504C80.9961 53.6504 80.3486 53.9697 79.8564 54.6084C79.3643 55.2471 79.1182 56.1611 79.1182 57.3506ZM84.8574 48.7812C84.8574 49.4141 84.6758 49.9268 84.3125 50.3193C83.9551 50.7119 83.5068 50.9082 82.9678 50.9082C82.7275 50.9082 82.5195 50.8789 82.3438 50.8203C82.168 50.7617 81.9365 50.6416 81.6494 50.46C81.3682 50.2783 81.1631 50.1699 81.0342 50.1348C80.9111 50.0938 80.7676 50.0732 80.6035 50.0732C80.3633 50.0732 80.1582 50.167 79.9883 50.3545C79.8184 50.5361 79.7334 50.7705 79.7334 51.0576L78.6436 50.9961C78.6436 50.3691 78.8193 49.8506 79.1709 49.4404C79.5283 49.0303 79.9795 48.8252 80.5244 48.8252C80.7295 48.8252 80.9141 48.8545 81.0781 48.9131C81.2422 48.9717 81.4648 49.0859 81.7461 49.2559C82.0273 49.4258 82.2412 49.5371 82.3877 49.5898C82.54 49.6426 82.707 49.6689 82.8887 49.6689C83.1406 49.6689 83.3486 49.5693 83.5127 49.3701C83.6826 49.1709 83.7676 48.9395 83.7676 48.6758L84.8574 48.7812Z" fill="white"/>
<path d="M92.126 62.1758C90.8369 62.1758 89.7881 61.7539 88.9795 60.9102C88.1709 60.0605 87.7666 58.9268 87.7666 57.5088V57.21C87.7666 56.2666 87.9453 55.4258 88.3027 54.6875C88.666 53.9434 89.1699 53.3633 89.8145 52.9473C90.4648 52.5254 91.168 52.3145 91.9238 52.3145C93.1602 52.3145 94.1211 52.7217 94.8066 53.5361C95.4922 54.3506 95.835 55.5166 95.835 57.0342V57.7109H89.3926C89.416 58.6484 89.6885 59.4072 90.21 59.9873C90.7373 60.5615 91.4053 60.8486 92.2139 60.8486C92.7881 60.8486 93.2744 60.7314 93.6729 60.4971C94.0713 60.2627 94.4199 59.9521 94.7188 59.5654L95.7119 60.3389C94.915 61.5635 93.7197 62.1758 92.126 62.1758ZM91.9238 53.6504C91.2676 53.6504 90.7168 53.8906 90.2715 54.3711C89.8262 54.8457 89.5508 55.5137 89.4453 56.375H94.209V56.252C94.1621 55.4258 93.9395 54.7871 93.541 54.3359C93.1426 53.8789 92.6035 53.6504 91.9238 53.6504Z" fill="white"/>
<path d="M103.262 59.4775C103.262 59.0381 103.095 58.6982 102.761 58.458C102.433 58.2119 101.855 58.001 101.029 57.8252C100.209 57.6494 99.5557 57.4385 99.0693 57.1924C98.5889 56.9463 98.2314 56.6533 97.9971 56.3135C97.7686 55.9736 97.6543 55.5693 97.6543 55.1006C97.6543 54.3213 97.9824 53.6621 98.6387 53.123C99.3008 52.584 100.145 52.3145 101.17 52.3145C102.248 52.3145 103.121 52.5928 103.789 53.1494C104.463 53.7061 104.8 54.418 104.8 55.2852H103.165C103.165 54.8398 102.975 54.4561 102.594 54.1338C102.219 53.8115 101.744 53.6504 101.17 53.6504C100.578 53.6504 100.115 53.7793 99.7812 54.0371C99.4473 54.2949 99.2803 54.6318 99.2803 55.0479C99.2803 55.4404 99.4355 55.7363 99.7461 55.9355C100.057 56.1348 100.616 56.3252 101.425 56.5068C102.239 56.6885 102.898 56.9053 103.402 57.1572C103.906 57.4092 104.278 57.7139 104.519 58.0713C104.765 58.4229 104.888 58.8535 104.888 59.3633C104.888 60.2129 104.548 60.8955 103.868 61.4111C103.188 61.9209 102.307 62.1758 101.223 62.1758C100.461 62.1758 99.7871 62.041 99.2012 61.7715C98.6152 61.502 98.1553 61.127 97.8213 60.6465C97.4932 60.1602 97.3291 59.6357 97.3291 59.0732H98.9551C98.9844 59.6182 99.2012 60.0518 99.6055 60.374C100.016 60.6904 100.555 60.8486 101.223 60.8486C101.838 60.8486 102.33 60.7256 102.699 60.4795C103.074 60.2275 103.262 59.8936 103.262 59.4775Z" fill="white"/>
<path d="M115.417 62.1758C114.128 62.1758 113.079 61.7539 112.271 60.9102C111.462 60.0605 111.058 58.9268 111.058 57.5088V57.21C111.058 56.2666 111.236 55.4258 111.594 54.6875C111.957 53.9434 112.461 53.3633 113.105 52.9473C113.756 52.5254 114.459 52.3145 115.215 52.3145C116.451 52.3145 117.412 52.7217 118.098 53.5361C118.783 54.3506 119.126 55.5166 119.126 57.0342V57.7109H112.684C112.707 58.6484 112.979 59.4072 113.501 59.9873C114.028 60.5615 114.696 60.8486 115.505 60.8486C116.079 60.8486 116.565 60.7314 116.964 60.4971C117.362 60.2627 117.711 59.9521 118.01 59.5654L119.003 60.3389C118.206 61.5635 117.011 62.1758 115.417 62.1758ZM115.215 53.6504C114.559 53.6504 114.008 53.8906 113.562 54.3711C113.117 54.8457 112.842 55.5137 112.736 56.375H117.5V56.252C117.453 55.4258 117.23 54.7871 116.832 54.3359C116.434 53.8789 115.895 53.6504 115.215 53.6504Z" fill="white"/>
<path d="M122.545 52.4902L122.589 53.5449C123.286 52.7246 124.227 52.3145 125.41 52.3145C126.74 52.3145 127.646 52.8242 128.126 53.8438C128.442 53.3867 128.853 53.0176 129.356 52.7363C129.866 52.4551 130.467 52.3145 131.158 52.3145C133.244 52.3145 134.305 53.4189 134.34 55.6279V62H132.714V55.7246C132.714 55.0449 132.559 54.5381 132.248 54.2041C131.938 53.8643 131.416 53.6943 130.684 53.6943C130.08 53.6943 129.579 53.876 129.181 54.2393C128.782 54.5967 128.551 55.0801 128.486 55.6895V62H126.852V55.7686C126.852 54.3857 126.175 53.6943 124.821 53.6943C123.755 53.6943 123.025 54.1484 122.633 55.0566V62H121.007V52.4902H122.545Z" fill="white"/>
<path d="M143.331 62H141.644V49.2031H143.331V62Z" fill="white"/>
<path d="M147.708 52.4902L147.761 53.6855C148.487 52.7715 149.437 52.3145 150.608 52.3145C152.618 52.3145 153.632 53.4482 153.649 55.7158V62H152.023V55.707C152.018 55.0215 151.859 54.5146 151.549 54.1865C151.244 53.8584 150.767 53.6943 150.116 53.6943C149.589 53.6943 149.126 53.835 148.728 54.1162C148.329 54.3975 148.019 54.7666 147.796 55.2236V62H146.17V52.4902H147.708Z" fill="white"/>
<path d="M156.901 62V53.7471H155.398V52.4902H156.901V51.5146C156.901 50.4951 157.174 49.707 157.719 49.1504C158.264 48.5938 159.034 48.3154 160.03 48.3154C160.405 48.3154 160.777 48.3652 161.146 48.4648L161.059 49.7832C160.783 49.7305 160.49 49.7041 160.18 49.7041C159.652 49.7041 159.245 49.8594 158.958 50.1699C158.671 50.4746 158.527 50.9141 158.527 51.4883V52.4902H160.558V53.7471H158.527V62H156.901Z" fill="white"/>
<path d="M161.929 57.1572C161.929 56.2256 162.11 55.3877 162.474 54.6436C162.843 53.8994 163.353 53.3252 164.003 52.9209C164.659 52.5166 165.406 52.3145 166.244 52.3145C167.539 52.3145 168.585 52.7627 169.382 53.6592C170.185 54.5557 170.586 55.748 170.586 57.2363V57.3506C170.586 58.2764 170.407 59.1084 170.05 59.8467C169.698 60.5791 169.191 61.1504 168.529 61.5605C167.873 61.9707 167.117 62.1758 166.262 62.1758C164.973 62.1758 163.927 61.7275 163.124 60.8311C162.327 59.9346 161.929 58.748 161.929 57.2715V57.1572ZM163.563 57.3506C163.563 58.4053 163.807 59.252 164.293 59.8906C164.785 60.5293 165.441 60.8486 166.262 60.8486C167.088 60.8486 167.744 60.5264 168.23 59.8818C168.717 59.2314 168.96 58.3232 168.96 57.1572C168.96 56.1143 168.711 55.2705 168.213 54.626C167.721 53.9756 167.064 53.6504 166.244 53.6504C165.441 53.6504 164.794 53.9697 164.302 54.6084C163.81 55.2471 163.563 56.1611 163.563 57.3506Z" fill="white"/>
<path d="M177.222 53.9492C176.976 53.9082 176.709 53.8877 176.422 53.8877C175.355 53.8877 174.632 54.3418 174.251 55.25V62H172.625V52.4902H174.207L174.233 53.5889C174.767 52.7393 175.522 52.3145 176.501 52.3145C176.817 52.3145 177.058 52.3555 177.222 52.4375V53.9492Z" fill="white"/>
<path d="M180.254 52.4902L180.298 53.5449C180.995 52.7246 181.936 52.3145 183.119 52.3145C184.449 52.3145 185.354 52.8242 185.835 53.8438C186.151 53.3867 186.562 53.0176 187.065 52.7363C187.575 52.4551 188.176 52.3145 188.867 52.3145C190.953 52.3145 192.014 53.4189 192.049 55.6279V62H190.423V55.7246C190.423 55.0449 190.268 54.5381 189.957 54.2041C189.646 53.8643 189.125 53.6943 188.393 53.6943C187.789 53.6943 187.288 53.876 186.89 54.2393C186.491 54.5967 186.26 55.0801 186.195 55.6895V62H184.561V55.7686C184.561 54.3857 183.884 53.6943 182.53 53.6943C181.464 53.6943 180.734 54.1484 180.342 55.0566V62H178.716V52.4902H180.254Z" fill="white"/>
<path d="M200.381 62C200.287 61.8125 200.211 61.4785 200.152 60.998C199.396 61.7832 198.494 62.1758 197.445 62.1758C196.508 62.1758 195.737 61.9121 195.134 61.3848C194.536 60.8516 194.237 60.1777 194.237 59.3633C194.237 58.373 194.612 57.6055 195.362 57.0605C196.118 56.5098 197.179 56.2344 198.544 56.2344H200.126V55.4873C200.126 54.9189 199.956 54.4678 199.616 54.1338C199.276 53.7939 198.775 53.624 198.113 53.624C197.533 53.624 197.047 53.7705 196.654 54.0635C196.262 54.3564 196.065 54.7109 196.065 55.127H194.431C194.431 54.6523 194.598 54.1953 194.932 53.7559C195.271 53.3105 195.729 52.959 196.303 52.7012C196.883 52.4434 197.519 52.3145 198.21 52.3145C199.306 52.3145 200.164 52.5898 200.785 53.1406C201.406 53.6855 201.729 54.4385 201.752 55.3994V59.7764C201.752 60.6494 201.863 61.3438 202.086 61.8594V62H200.381ZM197.683 60.7607C198.192 60.7607 198.676 60.6289 199.133 60.3652C199.59 60.1016 199.921 59.7588 200.126 59.3369V57.3857H198.852C196.859 57.3857 195.863 57.9688 195.863 59.1348C195.863 59.6445 196.033 60.043 196.373 60.3301C196.713 60.6172 197.149 60.7607 197.683 60.7607ZM199.186 48.5H201.154L198.799 51.084H197.489L199.186 48.5Z" fill="white"/>
<path d="M206.507 50.1875V52.4902H208.282V53.7471H206.507V59.6445C206.507 60.0254 206.586 60.3125 206.744 60.5059C206.902 60.6934 207.172 60.7871 207.553 60.7871C207.74 60.7871 207.998 60.752 208.326 60.6816V62C207.898 62.1172 207.482 62.1758 207.078 62.1758C206.352 62.1758 205.804 61.9561 205.435 61.5166C205.065 61.0771 204.881 60.4531 204.881 59.6445V53.7471H203.149V52.4902H204.881V50.1875H206.507Z" fill="white"/>
<path d="M211.956 62H210.33V52.4902H211.956V62ZM210.198 49.9678C210.198 49.7041 210.277 49.4814 210.436 49.2998C210.6 49.1182 210.84 49.0273 211.156 49.0273C211.473 49.0273 211.713 49.1182 211.877 49.2998C212.041 49.4814 212.123 49.7041 212.123 49.9678C212.123 50.2314 212.041 50.4512 211.877 50.627C211.713 50.8027 211.473 50.8906 211.156 50.8906C210.84 50.8906 210.6 50.8027 210.436 50.627C210.277 50.4512 210.198 50.2314 210.198 49.9678Z" fill="white"/>
<path d="M218.381 60.8486C218.961 60.8486 219.468 60.6729 219.901 60.3213C220.335 59.9697 220.575 59.5303 220.622 59.0029H222.16C222.131 59.5479 221.943 60.0664 221.598 60.5586C221.252 61.0508 220.789 61.4434 220.209 61.7363C219.635 62.0293 219.025 62.1758 218.381 62.1758C217.086 62.1758 216.055 61.7451 215.287 60.8838C214.525 60.0166 214.145 58.833 214.145 57.333V57.0605C214.145 56.1348 214.314 55.3115 214.654 54.5908C214.994 53.8701 215.48 53.3105 216.113 52.9121C216.752 52.5137 217.505 52.3145 218.372 52.3145C219.438 52.3145 220.323 52.6338 221.026 53.2725C221.735 53.9111 222.113 54.7402 222.16 55.7598H220.622C220.575 55.1445 220.341 54.6406 219.919 54.248C219.503 53.8496 218.987 53.6504 218.372 53.6504C217.546 53.6504 216.904 53.9492 216.447 54.5469C215.996 55.1387 215.771 55.9971 215.771 57.1221V57.4297C215.771 58.5254 215.996 59.3691 216.447 59.9609C216.898 60.5527 217.543 60.8486 218.381 60.8486Z" fill="white"/>
<path d="M229.859 62C229.766 61.8125 229.689 61.4785 229.631 60.998C228.875 61.7832 227.973 62.1758 226.924 62.1758C225.986 62.1758 225.216 61.9121 224.612 61.3848C224.015 60.8516 223.716 60.1777 223.716 59.3633C223.716 58.373 224.091 57.6055 224.841 57.0605C225.597 56.5098 226.657 56.2344 228.022 56.2344H229.604V55.4873C229.604 54.9189 229.435 54.4678 229.095 54.1338C228.755 53.7939 228.254 53.624 227.592 53.624C227.012 53.624 226.525 53.7705 226.133 54.0635C225.74 54.3564 225.544 54.7109 225.544 55.127H223.909C223.909 54.6523 224.076 54.1953 224.41 53.7559C224.75 53.3105 225.207 52.959 225.781 52.7012C226.361 52.4434 226.997 52.3145 227.688 52.3145C228.784 52.3145 229.643 52.5898 230.264 53.1406C230.885 53.6855 231.207 54.4385 231.23 55.3994V59.7764C231.23 60.6494 231.342 61.3438 231.564 61.8594V62H229.859ZM227.161 60.7607C227.671 60.7607 228.154 60.6289 228.611 60.3652C229.068 60.1016 229.399 59.7588 229.604 59.3369V57.3857H228.33C226.338 57.3857 225.342 57.9688 225.342 59.1348C225.342 59.6445 225.512 60.043 225.852 60.3301C226.191 60.6172 226.628 60.7607 227.161 60.7607Z" fill="white"/>
</svg>
